<?xml version="1.0" standalone="no"?>
<!DOCTYPE svg PUBLIC "-//W3C//DTD SVG 20010904//EN"
 "http://www.w3.org/TR/2001/REC-SVG-20010904/DTD/svg10.dtd">
<svg version="1.0" xmlns="http://www.w3.org/2000/svg"
 width="265.000000pt" height="265.000000pt" viewBox="0 0 265.000000 265.000000"
 preserveAspectRatio="xMidYMid meet">
<metadata>
Created by potrace 1.11, written by Peter Selinger 2001-2013
</metadata>
<g transform="translate(0.000000,265.000000) scale(0.100000,-0.100000)"
fill="#000000" stroke="none">
<path d="M2023 2231 c-43 -56 -46 -58 -123 -66 -30 -4 -135 -17 -233 -30
l-179 -23 -61 -59 c-189 -180 -230 -218 -238 -219 -5 -1 -15 -2 -23 -3 -8 0
-19 -14 -24 -30 -20 -56 42 -96 81 -53 10 10 17 26 17 34 0 25 269 281 298
283 27 3 134 16 167 21 17 2 46 6 65 8 19 2 62 8 95 12 92 12 100 11 100 -11
0 -23 34 -33 46 -13 5 7 9 24 9 37 0 31 66 112 85 105 24 -10 27 -40 6 -75
-12 -21 -17 -39 -12 -48 15 -23 44 -7 67 36 20 38 21 47 10 82 -15 51 -17 53
-70 58 -43 5 -45 4 -83 -46z"/>
<path d="M948 2175 c-2 -2 -31 -6 -65 -10 -34 -3 -70 -7 -80 -9 -10 -2 -47 -7
-83 -11 -36 -4 -72 -8 -80 -10 -8 -1 -46 -6 -85 -11 -38 -4 -74 -9 -80 -10 -5
-1 -19 -2 -30 -3 -11 -1 -40 -20 -65 -44 -37 -35 -175 -161 -287 -263 -13 -12
-37 -24 -53 -27 -55 -12 -52 -89 4 -95 31 -4 56 13 56 37 0 16 53 68 269 263
l83 76 97 12 c53 7 113 14 133 16 21 2 48 5 60 8 13 2 71 9 129 16 103 12 109
12 228 -16 68 -15 131 -36 143 -46 41 -35 88 -17 88 33 0 37 -23 53 -66 46
-20 -4 -64 0 -98 8 -33 8 -76 17 -95 20 -19 3 -37 8 -41 10 -10 6 -78 14 -82
10z"/>
<path d="M2216 2111 c-10 -16 6 -41 30 -47 17 -4 36 -28 64 -79 22 -40 46 -77
53 -82 25 -20 127 -55 142 -49 32 12 13 37 -52 68 -64 31 -70 37 -104 101 -22
43 -46 74 -63 83 -32 16 -62 18 -70 5z"/>
<path d="M1991 1946 c-22 -26 -9 -69 22 -80 36 -13 61 2 65 38 4 35 -14 56
-48 56 -15 0 -33 -6 -39 -14z"/>
<path d="M741 1914 c-11 -8 -21 -23 -21 -32 0 -10 -58 -67 -136 -132 -75 -63
-155 -131 -178 -151 -72 -64 -260 -222 -319 -269 -31 -25 -59 -54 -63 -64 -3
-11 -6 -151 -6 -311 l-1 -291 32 -62 c21 -42 29 -70 25 -86 -11 -47 53 -82 87
-47 23 22 19 52 -9 78 -17 16 -42 51 -56 80 l-26 52 0 281 c0 212 3 284 13
293 6 7 37 32 67 57 30 25 57 47 60 50 3 3 61 53 130 110 69 58 130 110 136
115 6 6 35 30 64 55 29 25 58 50 64 55 6 6 38 32 71 60 33 27 62 53 63 57 2 5
14 8 27 8 31 0 64 35 58 60 -10 38 -52 55 -82 34z"/>
<path d="M2251 1892 c-4 -1 -3 -19 4 -40 7 -20 17 -36 22 -34 4 1 18 20 31 41
l22 38 -35 -1 c-19 0 -39 -2 -44 -4z"/>
<path d="M1581 1854 c-11 -8 -21 -23 -21 -33 0 -11 -40 -55 -92 -102 -51 -46
-115 -104 -141 -129 -43 -39 -63 -50 -169 -82 -66 -20 -124 -40 -129 -45 -9
-9 -11 -23 -24 -158 -4 -38 -8 -77 -10 -85 -2 -8 -7 -58 -10 -110 -5 -78 -2
-118 19 -223 l25 -128 109 -153 c73 -102 110 -162 110 -179 -1 -37 19 -57 53
-57 50 0 67 80 20 95 -11 3 -70 76 -131 162 -112 158 -114 163 -135 283 -3 14
-8 43 -12 65 -10 58 -6 178 12 300 2 17 7 57 10 90 4 33 7 60 8 61 1 1 51 16
111 33 121 35 118 34 254 159 132 122 153 138 185 146 34 8 50 43 33 70 -18
29 -50 37 -75 20z"/>
<path d="M2543 1829 c3 -13 9 -48 13 -76 3 -29 10 -53 14 -53 10 0 80 77 80
88 0 9 -59 47 -89 57 -21 6 -23 5 -18 -16z"/>
<path d="M1861 1771 c-14 -14 -18 -29 -14 -53 9 -70 -4 -83 -132 -123 -132
-41 -123 -31 -159 -177 -19 -77 -47 -141 -140 -321 -76 -149 -114 -232 -111
-248 3 -22 6 -48 20 -204 8 -85 14 -126 21 -137 3 -5 40 -25 82 -45 43 -19 86
-46 98 -59 27 -33 60 -38 84 -14 24 24 25 39 4 69 -13 18 -23 22 -45 17 -34
-6 -179 55 -180 76 0 7 -2 27 -4 43 -4 32 -11 99 -21 202 l-6 61 93 184 c51
100 100 199 110 219 17 34 22 37 126 63 144 38 157 40 151 30 -3 -5 -9 -36
-13 -69 -3 -32 -8 -62 -10 -65 -2 -3 -6 -35 -10 -70 -3 -36 -8 -72 -10 -80 -3
-8 -7 -33 -9 -55 -3 -22 -8 -56 -11 -75 -32 -211 -52 -375 -48 -385 2 -7 44
-27 93 -44 49 -17 100 -42 114 -56 14 -14 31 -25 39 -25 25 0 50 26 50 54 0
34 -30 57 -65 50 -16 -3 -57 6 -103 22 l-76 27 5 36 c3 20 8 56 11 81 3 25 8
52 10 60 2 8 6 40 10 71 3 31 7 65 9 75 2 11 9 55 15 99 12 81 15 100 27 190
3 28 8 59 10 70 2 11 7 42 10 70 3 27 6 50 7 51 195 139 284 194 311 195 17 0
42 2 56 4 25 3 127 12 224 20 55 5 72 16 62 40 -5 15 -18 16 -103 10 -54 -4
-109 -8 -123 -10 -14 -2 -59 -6 -100 -10 l-75 -7 -146 -102 c-144 -101 -148
-103 -269 -135 -67 -18 -124 -31 -126 -29 -2 2 5 37 14 78 l17 74 112 36 c62
19 116 40 121 45 5 6 15 26 22 45 8 19 24 45 37 57 28 27 29 47 3 73 -25 25
-45 25 -69 1z"/>
<path d="M673 1353 c-7 -3 -13 -19 -13 -37 0 -30 -21 -53 -197 -227 l-198
-194 2 -164 c2 -91 7 -169 13 -176 5 -6 43 -27 85 -46 41 -19 77 -42 81 -52
14 -43 85 -41 99 3 12 36 -35 84 -65 65 -5 -3 -43 10 -84 29 l-74 35 -1 143
-2 142 188 183 c184 179 189 182 231 183 l43 0 -3 57 -3 57 -45 2 c-25 1 -51
-1 -57 -3z"/>
<path d="M587 982 c-23 -25 -21 -55 3 -77 11 -10 43 -89 75 -185 31 -93 62
-174 70 -180 7 -6 50 -20 94 -30 47 -11 89 -28 101 -40 25 -25 52 -26 75 0 35
39 -11 103 -57 79 -18 -10 -163 21 -178 38 -4 4 -30 77 -58 161 -36 109 -49
160 -43 175 21 57 -43 102 -82 59z"/>
</g>
</svg>
